<svg width="202" height="100" xmlns="http://www.w3.org/2000/svg">
    <path d="M59.814 88.504c.656 0 1.256.11 1.8.33.544.22 1.008.546 1.392.978l-.78.756-.162-.16c-.603-.557-1.337-.836-2.202-.836-.624 0-1.188.14-1.692.42-.504.28-.898.666-1.182 1.158a3.24 3.24 0 0 0-.426 1.65c0 .608.142 1.158.426 1.65.284.492.678.878 1.182 1.158.504.28 1.068.42 1.692.42.936 0 1.724-.336 2.364-1.008l.78.756-.17.179c-.35.345-.759.613-1.228.805l-.238.09a4.709 4.709 0 0 1-1.29.24l-.194.004-.132.506.161.022c.259.047.463.146.613.296.18.18.27.406.27.678a.933.933 0 0 1-.408.798c-.272.196-.632.294-1.08.294-.416 0-.772-.088-1.068-.264l.252-.588.148.073c.202.087.425.131.668.131.448 0 .672-.16.672-.48a.405.405 0 0 0-.168-.342c-.112-.084-.284-.126-.516-.126h-.324l.261-1.025-.246-.033a4.444 4.444 0 0 1-1.461-.496 4.106 4.106 0 0 1-1.59-1.536c-.384-.652-.576-1.386-.576-2.202 0-.816.192-1.55.576-2.202a4.095 4.095 0 0 1 1.596-1.536c.68-.372 1.44-.558 2.28-.558zm32.92 0c.655 0 1.255.11 1.8.33.543.22 1.007.546 1.391.978l-.78.756-.161-.16c-.603-.557-1.338-.836-2.203-.836-.624 0-1.188.14-1.692.42-.504.28-.898.666-1.182 1.158a3.24 3.24 0 0 0-.426 1.65c0 .608.142 1.158.426 1.65.284.492.678.878 1.182 1.158.504.28 1.068.42 1.692.42.936 0 1.724-.336 2.364-1.008l.78.756-.17.179c-.349.345-.758.613-1.228.805a4.73 4.73 0 0 1-1.806.336c-.84 0-1.598-.186-2.274-.558a4.106 4.106 0 0 1-1.59-1.536c-.384-.652-.576-1.386-.576-2.202 0-.816.192-1.55.576-2.202a4.095 4.095 0 0 1 1.596-1.536c.68-.372 1.44-.558 2.28-.558zm9.462 0c.84 0 1.6.186 2.28.558.68.372 1.212.884 1.596 1.536.384.652.576 1.386.576 2.202 0 .816-.192 1.55-.576 2.202a4.095 4.095 0 0 1-1.596 1.536c-.68.372-1.44.558-2.28.558-.848 0-1.612-.186-2.292-.558a4.124 4.124 0 0 1-1.602-1.542 4.232 4.232 0 0 1-.582-2.196c0-.808.194-1.54.582-2.196a4.124 4.124 0 0 1 1.602-1.542c.68-.372 1.444-.558 2.292-.558zm38.62 0c.655 0 1.255.11 1.8.33.543.22 1.007.546 1.391.978l-.78.756-.16-.16c-.604-.557-1.338-.836-2.204-.836-.624 0-1.188.14-1.692.42-.504.28-.898.666-1.182 1.158a3.24 3.24 0 0 0-.426 1.65c0 .608.142 1.158.426 1.65.284.492.678.878 1.182 1.158.504.28 1.068.42 1.692.42.936 0 1.724-.336 2.364-1.008l.78.756-.17.179c-.348.345-.758.613-1.228.805a4.73 4.73 0 0 1-1.806.336c-.84 0-1.598-.186-2.274-.558a4.106 4.106 0 0 1-1.59-1.536c-.384-.652-.576-1.386-.576-2.202 0-.816.192-1.55.576-2.202a4.095 4.095 0 0 1 1.596-1.536c.68-.372 1.44-.558 2.28-.558zm-57.738.096 3.816 8.4h-1.26l-.924-2.1h-4.464l-.924 2.1h-1.236l3.804-8.4h1.188zm69.516 0v1.044h-4.728v2.58h4.212v1.02h-4.212v2.712h4.896V97h-6.096v-8.4h5.928zm-18.565 0v1.044H129.3v2.58h4.212v1.02H129.3v2.712h4.896V97H128.1v-8.4h5.928zm-8.18 0v1.044h-2.88V97h-1.187v-7.356h-2.88V88.6h6.948zm-15.438 0 5.04 6.264V88.6h1.2V97h-.984l-5.04-6.264V97h-1.2v-8.4h.984zm-66.223 0v1.044H39.46v2.928h4.212v1.032H39.46V97h-1.2v-8.4h5.928zm24.993 0 3.816 8.4h-1.26l-.924-2.1h-4.464l-.924 2.1h-1.236l3.804-8.4h1.188zm-19.022 0 3.816 8.4h-1.26l-.924-2.1h-4.464l-.924 2.1h-1.236l3.804-8.4h1.188zm108.766 0 .267.005c.962.04 1.73.298 2.301.775.624.52.936 1.236.936 2.148 0 .648-.16 1.2-.48 1.656-.32.456-.776.788-1.368.996l1.992 2.82h-1.308l-1.812-2.58-.159.01c-.15.01-.273.014-.369.014h-2.076V97h-1.2v-8.4h3.276zm-56.729.972c-.616 0-1.174.14-1.674.42-.5.28-.892.666-1.176 1.158a3.24 3.24 0 0 0-.426 1.65c0 .608.142 1.158.426 1.65.284.492.676.878 1.176 1.158.5.28 1.058.42 1.674.42a3.3 3.3 0 0 0 1.662-.42c.492-.28.88-.666 1.164-1.158a3.24 3.24 0 0 0 .426-1.65 3.24 3.24 0 0 0-.426-1.65 3.081 3.081 0 0 0-1.164-1.158 3.3 3.3 0 0 0-1.662-.42zm-74.196.6L30.828 93 28 95.828 25.172 93 28 90.172zm146 0L176.828 93 174 95.828 171.172 93 174 90.172zm-105.42-.348L66.77 93.94h3.624l-1.812-4.116zm-19.021 0-1.812 4.116h3.624l-1.812-4.116zm32.92 0-1.813 4.116h3.624l-1.812-4.116zm76.41-.18h-2.04v3.78h2.04c.76 0 1.34-.164 1.74-.492.4-.328.6-.796.6-1.404 0-.608-.2-1.074-.6-1.398-.4-.324-.98-.486-1.74-.486zM56.084.068c.7.227.638.741.452 1.42a103.744 103.744 0 0 1-2.634 8.605c-2.367 6.587-5.414 12.803-9.675 18.381-2.696 3.54-5.846 6.628-9.49 9.16-2.901 2.017-6.071 3.52-9.53 4.323-.843.185-.843.535-.39 1.111 3.725 4.838 6.525 10.251 9.756 15.377 2.1 3.334 4.261 6.628 7.452 9.057 1.955 1.482 4.59 1.811 6.792.39.597-.37 1.235-.72 1.668.063.411.74-.062 1.173-.741 1.605-3.479 2.12-6.772 1.153-9.53-1.132-3.459-2.861-5.744-6.649-8.09-10.395-2.84-4.529-5.311-9.325-8.584-13.586a5.357 5.357 0 0 0-.514-.638c-.186-.185-.33-.514-.66-.37-.267.103-.143.412-.205.638a1773.86 1773.86 0 0 0-2.326 10.066c-.494 2.264-.885 4.549-1.42 6.813-.535 2.285-.947 4.61-1.38 6.916-.082.453-.308.906-.144 1.38.268.123.412-.083.577-.186.432-.226.803-.103 1.111.226.268.31.33.639.124 1.05-.494.947-.844 1.935-1.462 2.82-.308.453-.288.762.392.762h.823c17.517 0 35.055 0 52.572.02.947 0 1.379-.185 1.543-1.214.433-2.655.988-5.29 1.524-7.945.473-2.306 1.008-4.59 1.502-6.896.597-2.738 1.174-5.475 1.77-8.213.248-1.132.556-2.244.783-3.376.061-.268.226-.659-.144-.823-.289-.124-.453.226-.638.411-.474.494-.988.968-1.565 1.318-1.44.844-2.779.556-3.787-.782-1.05-1.359-1.524-2.965-2.038-4.55-.206-.617-.432-1.235-.72-1.81-.412-.824-.824-.865-1.483-.207-1.235 1.256-1.996 2.84-2.758 4.405-.906 1.915-1.708 3.87-2.573 5.784-.02.042-.02.062-.041.083-.33.617-.515 1.544-1.462 1.276-.967-.288-.638-1.112-.535-1.873.268-1.894.782-3.747 1.215-5.6.04-.164.144-.349 0-.493-.206-.206-.391 0-.535.103-1.585.967-3.273 1.544-5.167 1.317-.659-.082-.762.494-.988.885-1.03 1.77-2.614 2.656-4.385 2.367-1.852-.308-2.758-1.708-3.087-3.314-.515-2.51.02-4.878 2.017-6.628.823-.72 1.73-1.358 2.532-2.14 1.03-.988 2.244-.72 3.15.494.864 1.173.802 2.573.926 3.931.061.638-.021 1.297-.083 1.956-.04.514.083.761.68.7 2.305-.206 4.158-1.318 5.701-2.944.431-.456.597-1.045.732-1.646l.1-.451c.05-.225.106-.448.177-.661.309-.906.535-1.832.823-2.738.186-.576.597-.844 1.194-.68.577.165.68.639.556 1.153l-.576 2.388c-.289 1.174-.68 2.49-.906 3.932.412-.618.844-1.359 1.297-2.1.164-.185.308-.37.473-.535 1.935-1.976 3.746-1.667 4.837.906.618 1.44 1.091 2.943 1.647 4.405.124.308.288.617.474.905.617.906 1.111.968 2.058.35.617-.411 1.03-1.008 1.461-1.585.844-1.152 1.585-2.387 2.409-3.581.37-.535.247-.72-.37-.72-.886.02-1.792.02-2.677.061-.535.02-.885-.185-.926-.72-.041-.556.226-.927.803-.988l.37-.05.74-.112c.616-.091 1.229-.165 1.833-.127 1.153.083 1.503-.555 1.709-1.44 1.132-5.023 2.367-10.004 4.178-14.842.577-1.523 1.215-3.046 2.12-4.425.268-.391.577-.762.927-1.091.473-.474 1.09-.68 1.688-.412.597.268.905.824.947 1.482.103 1.688-.433 3.253-.968 4.796-1.626 4.693-4.014 9.016-6.587 13.236-.309.514-.39 1.153-.556 1.75-.123.452.145.535.515.514.968-.02 1.914-.062 2.861-.288.741-.185 1.503-.144 2.244-.165.473-.02.803.186.864.68.062.452-.082.802-.535.988-.39.164-.761.329-1.173.308-1.544-.082-3.046.453-4.59.453-.803 0-.906.68-1.03 1.194-.885 3.808-1.687 7.657-2.593 11.465-.906 3.808-1.647 7.658-2.49 11.486-.68 3.067-1.174 6.176-1.894 9.222-.31 1.317-.165 1.482 1.193 1.482h123.176c.452 0 .885 0 1.338.041.535.062.782.412.74.927-.04.473-.35.72-.823.761-.309.02-.617.02-.926.02-41.271 0-82.522 0-123.793.021-.089 0-.185-.01-.283-.024l-.2-.028c-.37-.05-.74-.063-.896.361-.268.68-.638 1.42.062 2.182.617.68-.453 3.088-1.38 3.17-.74.062-1.11-.453-1.131-1.153-.021-1.029.04-2.038.267-3.067.318-1.37.272-1.457-.987-1.461H2.853c-.782 0-1.873.144-1.853-.906.021-1.07 1.133-.844 1.894-.844 3.664-.02 7.349-.02 11.013 0 .782 0 1.029-.206.926-1.009-.23-1.712.04-3.385.347-5.05l.154-.832.075-.416c.577-3.253 1.256-6.505 1.935-9.737.577-2.778 1.235-5.516 1.873-8.295.392-1.729.783-3.458 1.194-5.187.165-.72-.308-.659-.782-.7-1.811-.165-3.602-.453-5.105-1.585a6.979 6.979 0 0 1-.926-.823c-.556-.597-.741-1.338-.432-2.1s.967-1.132 1.77-1.194c2.017-.103 3.829.597 5.475 1.688.66.432.947.535 1.153-.37.453-2.059 1.009-4.097 1.503-6.155.617-2.594 1.214-5.187 1.832-7.76.782-3.253 1.544-6.505 2.346-9.757.577-2.388 1.235-4.755 1.688-7.163.103-.556.432-1.153 1.173-1.03.762.124.865.72.741 1.338-.288 1.359-.617 2.717-.946 4.076-.66 2.758-1.297 5.496-1.956 8.254-.761 3.15-1.585 6.278-2.326 9.428-.617 2.593-1.173 5.187-1.79 7.78a30.845 30.845 0 0 1-.639 2.368c-.164.535-.02.679.515.658 1.214-.061 2.326-.555 3.437-.967 6.773-2.49 11.877-7.122 16.138-12.824 3.952-5.27 6.71-11.136 8.934-17.27 1.008-2.738 1.729-5.599 2.532-8.398.205-.741.638-1.091 1.338-.865zM197.97 5.626c.288 1.173.103 2.346-.206 3.458-1.297 4.652-3.376 8.995-5.97 13.05-1.461 2.285-1.934 4.838-2.552 7.39-.638 2.655-3.211 12.865-3.52 15.232-.33 2.388-.967 4.755-1.44 7.122-.783 3.85-1.565 7.699-2.327 11.548-.164.865-.226 1.75-.473 2.614-.144.515-.103 1.03.309 1.523.576.7-.33 2.882-1.235 3.109-.72.185-1.091-.227-1.215-.906-.165-.988-.02-1.997.124-2.964.411-2.697.967-5.373 1.461-8.049.453-2.387.906-4.754 1.38-7.142.226-1.174.534-2.326.781-3.5l.034-.132c.065-.255.13-.566-.219-.67-.288-.103-.432.267-.617.432-.824.803-1.606 1.667-2.738 2.1-1.462.555-2.758.205-3.685-1.091-1.214-1.709-1.543-3.685-1.832-5.682a.874.874 0 0 1-.004-.167l.014-.177c.016-.208.015-.408-.195-.5-.412-.164-.556.289-.761.515-1.05 1.256-2.1 2.511-3.13 3.787-.35.433-.74.824-1.214 1.091-1.358.762-2.45.186-2.696-1.379-.041-.35.206-.844-.288-.988-.37-.103-.515.391-.762.597-1.626 1.441-3.19 3.005-5.372 3.644a2.64 2.64 0 0 1-3.273-1.647c-.35-.926-.391-1.853-.391-2.82 0-.288.144-.7-.227-1.215-1.297 1.812-2.552 3.5-3.993 5.064-1.359 1.482-2.861 2.779-4.796 3.561-1.976.803-4.755-.35-5.373-3.252a31.362 31.362 0 0 1-.37-1.914c-.083-.515-.268-.577-.659-.289-2.12 1.565-3.746.556-4.878-1.379-.927-1.564-1.174-3.396-1.935-5.043-.597-1.297-1.215-1.379-2.059-.247-1.73 2.355-2.904 5.003-4.057 7.664l-.533 1.228c-.226.536-.473 1.05-.68 1.585-.226.556-.596.844-1.193.7-.638-.164-.7-.658-.618-1.214.165-1.4.412-2.758.824-4.096.062-.206.082-.392-.103-.639-1.359 1.38-2.635 2.8-4.138 3.953-1.358 1.05-2.675 2.037-4.549 2.058-1.935.02-3.417-1.482-3.89-3.046-.576-1.894-.391-3.767-.041-5.682.638-3.437 1.811-6.648 3.746-9.55.618-.927 1.318-1.833 2.306-2.43.72-.432 1.482-.638 2.202-.103.68.474.659 1.215.494 1.956-.35 1.544-1.276 2.8-2.285 3.952-1.07 1.215-2.202 2.367-3.437 3.376-.865.7-.865 1.729-1.132 2.676-.433 1.626-.433 3.273-.186 4.899.288 1.935 2.08 2.655 3.829 1.667 1.626-.926 3.005-2.161 4.281-3.5.824-.864 1.524-1.872 2.388-2.675 1.498-1.402 2.114-3.194 2.636-5.042l.172-.617c.086-.31.17-.62.26-.928.164-.556.267-1.132.493-1.667.206-.474.556-.968 1.174-.72.596.246.843.7.596 1.399-.308.906-.7 1.79-.7 2.758 0 .33.104.638.371.803.247.165.432-.082.597-.247 2.1-2.408 4.179-1.359 5.249 1.626.535 1.503.865 3.088 1.709 4.488.617.988 1.255 1.111 2.181.37 1.441-1.153 2.182-2.738 2.738-4.467.494-1.544 1.297-2.964 2.553-4.034 1.193-1.009 2.037-1.112 2.964-.515.74.494 1.152 1.956.885 3.026-.083.33-.165.72-.268 1.05-.165.473-.535.803-.988.7-.514-.103-.782-.535-.74-1.091.02-.412.164-.844.164-1.256 0-.288.123-.7-.288-.761-.392-.042-.66.308-.803.658a64.253 64.253 0 0 0-1.73 3.89c-1.193 2.1-1.317 4.282-.596 6.526.535 1.688 1.811 2.14 3.417 1.317 1.887-.96 3.245-2.493 4.526-4.097l.51-.644.254-.323c1.688-2.14 3.314-4.343 4.672-6.73.31-.556.824-.886 1.462-.66.576.217.57.7.476 1.19l-.044.21c-.494 2.203-1.029 4.385-.885 6.69.103 1.832.7 2.244 2.306 1.338 1.494-.83 2.69-2.003 3.854-3.22l.634-.665c.211-.222.423-.444.637-.664 1.338-1.379 2.079-3.108 2.943-4.755 1.01-1.873 2.224-3.54 4.447-4.117 1.173-.308 3.581.783 4.055 1.874.164.39.185.802-.165 1.132-.35.35-.741.308-1.132.082a.71.71 0 0 1-.247-.185c-.72-.741-1.564-1.462-2.594-.947-1.255.638-2.573 2.8-2.964 3.417-.844 1.338-1.482 4.014-1.811 5.475-.062.268-.185.68.164.824.35.144.515-.268.7-.474 1.77-1.914 3.273-4.034 4.817-6.113.35-.474.7-.906 1.338-.7.638.226.72.823.741 1.44.062 2.41.35 4.776 1.235 7.02.659 1.688 1.606 1.955 2.944.72 2.634-2.47 4.61-5.33 5.393-8.974.7-3.294 1.543-6.567 2.326-9.86.72-2.985 1.4-5.99 2.182-8.954l.352-1.324c1.118-4.193 2.293-8.378 4.547-12.159.308-.535.7-1.008 1.214-1.358.906-.618 1.873-.288 2.14.782zm-78.96 4.096c1.049.288 1.131 1.256 1.049 2.182-.226 2.388-.968 4.673-1.709 6.937-1.132 3.437-2.202 6.875-3.602 10.23-.864 2.1-1.688 4.24-2.82 6.237-.785 1.389-1.105 2.9-1.39 4.418l-.155.828c-.052.276-.106.552-.163.826-.577 2.8-1.07 5.62-1.544 8.46-.494 2.965-.906 5.929-1.38 8.913a100.092 100.092 0 0 0-.946 7.822c-.041.556-.062.927.556 1.091.535.144.617.597.535 1.07-.082.474-.35.886-.659 1.277-.411.535-.967.68-1.544.494-.535-.185-.761-.68-.761-1.215 0-1.482-.124-2.964.082-4.425.474-3.417.885-6.834 1.462-10.23.576-3.356 1.07-6.731 1.729-10.087.02-.144.04-.267.04-.411 0-.227.145-.535-.102-.659-.37-.185-.453.226-.576.432l-.301.45-.596.904c-.796 1.203-1.611 2.389-2.644 3.422-.967.967-2.017 1.914-3.5 1.276-1.481-.638-1.646-2.038-1.749-3.438-.02-.535.144-.967-.185-1.4-1.647 1.524-3.129 3.088-5.084 4.056-2.532 1.235-4.22.33-4.652-2.47-.285-1.89.015-3.712.37-5.532l.165-.84.082-.421c.082-.37.165-.741.247-1.091.144-.659.515-1.09 1.215-.906.679.165.885.7.679 1.38-.535 1.708-.741 3.458-1.009 5.207a5.215 5.215 0 0 0 .165 2.326c.33 1.091.762 1.297 1.79.782 1.553-.776 2.788-1.93 3.991-3.126l.6-.6c1.79-1.77 3.067-3.93 4.467-5.969 1.05-1.523 2.346-2.881 4.24-3.355 1.462-.37 2.264-.062 3.17 1.215.165.226.288.555.576.514.35-.062.227-.432.289-.68.782-3.169 1.482-6.38 2.326-9.53.782-2.922 1.605-5.845 2.593-8.707.762-2.223 1.565-4.446 2.861-6.422.412-.638.865-1.502 1.791-1.235zm-13.669 26.76c-1.646.823-2.49 2.305-3.417 3.787-1.132 1.832-1.626 3.767-1.75 5.99.145.514-.123 1.482.618 1.77.741.288 1.215-.535 1.709-1.009l.082-.082c1.38-1.585 2.408-3.396 3.561-5.125 1.523-2.512 1.441-6.464-.803-5.332zm-54.98 3.54c-.288-.02-.411.247-.514.432-.412.844-.72 1.73-.72 2.985.06.391.082 1.132.329 1.79.267.742.885 1.297 1.708 1.277 1.05-.041 1.667-.803 2.223-1.626.309-.453.268-.824-.226-1.112-1.277-.74-2.018-1.894-2.512-3.252-.061-.185-.02-.453-.288-.494zm2.264-1.914c-.74 1.173-.288 2.223.371 3.231.268.412.597.927 1.09.782.433-.123.166-.72.207-1.111 0-.124-.02-.268-.02-.638.082-.597-.083-1.38-.371-2.161-.103-.289-.144-.639-.515-.68-.412-.04-.576.288-.762.577zm-37.607 1.09c-.103.33.268.433.453.597.946.75 2.061.958 3.2 1.12l.526.074c.206.02.432.02.494-.247.062-.247-.165-.329-.33-.452-1.07-.783-2.284-1.153-3.56-1.359-.289.041-.68-.144-.783.268zm104.506-6.525c-1.318.824-2.12 2.038-2.573 3.52a7.229 7.229 0 0 0 2.573-3.52zm-27.706-.411c.576.04.946.432 1.008.988.083.74-.823 1.4-1.811 1.358-.535.02-.947-.123-.947-.782 0-.68 1.03-1.626 1.75-1.564zm67.804-.02c.617.06.864.473.844 1.07-.042.843-.639 1.317-1.647 1.296-.556.02-1.07-.082-1.112-.761-.04-.618 1.235-1.668 1.915-1.606zm-71.448-14.04c-1.647 2.944-2.635 6.073-3.376 9.284 1.709-2.243 3.829-8.316 3.376-9.283zm29.518-4.034c-.124.144-.391.453-.515.762-.68 1.832-2.593 7.246-3.293 10.292-.062.391-.144.803-.02.823.184.041.76-1.502.905-1.893.947-2.841 1.873-5.682 2.8-8.522.102-.35.185-1.153.185-1.441 0-.041-.042-.062-.062-.02zm78.343-6.978c-1.75 3.355-2.903 6.71-3.767 10.19 1.873-2.615 4.158-8.687 3.767-10.19z" fill="#C9A882" fill-rule="nonzero"/>
</svg>
