<svg width="24" height="24" xmlns="http://www.w3.org/2000/svg">
    <g fill="none" fill-rule="evenodd">
        <path d="M0 0h24v24H0z"/>
        <path d="M10.371 3.24a7.139 7.139 0 0 1 7.13 7.131c0 3.932-3.198 7.13-7.13 7.13s-7.13-3.198-7.13-7.13a7.139 7.139 0 0 1 7.13-7.13zm0 15.502a8.33 8.33 0 0 0 5.46-2.034l5.11 5.11a.616.616 0 0 0 .877 0 .62.62 0 0 0 0-.876l-5.11-5.111a8.33 8.33 0 0 0 2.034-5.46c0-4.616-3.756-8.371-8.37-8.371C5.754 2 2 5.755 2 10.371c0 4.615 3.755 8.37 8.371 8.37z" fill="#C9A882"/>
    </g>
</svg>
