<svg width="24" height="24" xmlns="http://www.w3.org/2000/svg">
    <g fill="none" fill-rule="evenodd">
        <path d="M0 0h24v24H0z"/>
        <path d="M16.91 3A3.094 3.094 0 0 1 20 6.09a3.094 3.094 0 0 1-3.09 3.092 3.083 3.083 0 0 1-2.272-.997l-5.59 3.187a3.082 3.082 0 0 1 0 1.801l5.59 3.186a3.083 3.083 0 0 1 2.271-.995A3.094 3.094 0 0 1 20 18.454a3.094 3.094 0 0 1-3.09 3.092 3.094 3.094 0 0 1-3.004-3.825l-5.665-3.23a3.08 3.08 0 0 1-2.15.873A3.094 3.094 0 0 1 3 12.273a3.094 3.094 0 0 1 3.09-3.091 3.08 3.08 0 0 1 2.151.872l5.665-3.23A3.094 3.094 0 0 1 16.909 3z" fill="#C9A882"/>
    </g>
</svg>
