<svg width="154" height="152" xmlns="http://www.w3.org/2000/svg">
    <path d="M106.313 17.783a5.328 5.328 0 0 0 2 .633c.706.078 1.369-.01 1.987-.266.619-.255 1.103-.7 1.452-1.336.393-.715.496-1.409.308-2.08-.187-.672-.618-1.465-1.293-2.379-.545-.726-.892-1.3-1.04-1.725-.149-.424-.111-.84.113-1.247.234-.427.556-.696.967-.807.41-.111.818-.055 1.226.169.307.169.555.372.74.61.187.238.354.527.504.868l.118 2.257.253.139 1.16-2.466a6.276 6.276 0 0 0-1.018-1.219 6.709 6.709 0 0 0-1.362-.98 4.189 4.189 0 0 0-1.435-.478 4.566 4.566 0 0 0-1.511.033 3.92 3.92 0 0 0-1.351.518c-.403.251-.714.575-.932.973-.35.635-.452 1.27-.31 1.905.144.634.483 1.3 1.02 1.995.473.621.835 1.127 1.086 1.517.251.39.394.737.428 1.04.034.303-.042.624-.227.962-.273.496-.648.779-1.125.846-.477.068-.983-.045-1.52-.34a3.056 3.056 0 0 1-.863-.706 3.59 3.59 0 0 1-.593-.986l-.052-2.413-.268-.148-1.234 2.6c.336.495.718.947 1.146 1.357.428.41.97.794 1.626 1.154zm13.036 8.89c.61.543 1.21.972 1.801 1.287.592.316 1.152.527 1.68.633l2.09-1.986-.216-.192-2.658.681a5.35 5.35 0 0 1-.994-.328 3.68 3.68 0 0 1-.95-.632 2.908 2.908 0 0 1-.936-1.62c-.133-.643-.074-1.335.176-2.075.251-.741.705-1.48 1.361-2.215.664-.744 1.365-1.292 2.104-1.643.738-.352 1.45-.499 2.136-.441a3.017 3.017 0 0 1 1.802.776c.262.234.46.463.593.688.133.226.245.5.336.824l-.549 3.041.228.204 1.977-2.497c-.131-.33-.274-.646-.427-.95a5.446 5.446 0 0 0-.607-.93c-.251-.314-.6-.671-1.049-1.071a6.074 6.074 0 0 0-2.05-1.214 6.478 6.478 0 0 0-2.338-.366c-.802.022-1.57.19-2.307.505a5.497 5.497 0 0 0-1.954 1.424c-.702.787-1.146 1.655-1.332 2.605-.187.95-.108 1.904.235 2.864.344.96.96 1.835 1.848 2.627zm10.312 10.913.224-.153-.13-1.456 3.481-2.378.509.744-2.521 5.531 2.081 3.046.225-.154-.13-1.394 2.213-5.32c.598.414 1.201.668 1.807.762a2.268 2.268 0 0 0 1.681-.387c.712-.486 1.077-1.151 1.098-1.995.02-.845-.306-1.758-.977-2.74l-3.28-4.801-.225.153.24 1.587-7.664 5.236-1.39-.8-.225.154 2.983 4.365zm4.704-3.812-.44-.645 3.508-2.398.384.562c.441.645.623 1.238.546 1.778-.077.54-.392.999-.944 1.376-.524.358-1.065.48-1.622.367-.558-.113-1.035-.46-1.432-1.04zm3.045 18.45c.287.8.687 1.488 1.2 2.062a5.674 5.674 0 0 0 1.764 1.346 5.505 5.505 0 0 0 2.136.544 5.92 5.92 0 0 0 2.326-.364 5.92 5.92 0 0 0 2.027-1.196 5.505 5.505 0 0 0 1.305-1.777c.308-.67.477-1.39.508-2.16a6.196 6.196 0 0 0-.383-2.354 6.15 6.15 0 0 0-1.194-2.046 5.674 5.674 0 0 0-1.764-1.346 5.505 5.505 0 0 0-2.136-.544 5.92 5.92 0 0 0-2.326.364 5.92 5.92 0 0 0-2.027 1.196 5.505 5.505 0 0 0-1.305 1.777 5.674 5.674 0 0 0-.508 2.16 6.15 6.15 0 0 0 .377 2.338zm.924-.042c-.214-.597-.195-1.218.056-1.862.25-.643.708-1.247 1.373-1.81.665-.564 1.51-1.029 2.534-1.396.832-.298 1.601-.438 2.306-.42.705.019 1.3.176 1.785.472.485.295.823.71 1.014 1.243.214.598.197 1.212-.053 1.843s-.707 1.226-1.374 1.784c-.667.558-1.513 1.02-2.537 1.387-.832.298-1.599.444-2.3.436-.7-.008-1.295-.156-1.784-.444a2.286 2.286 0 0 1-1.02-1.233zm3.77 19.976 4.129-.406-.027-.271-3.332-1.056-.366-3.722 9.271-.912.852 1.54.27-.027-.55-5.6-.271.026-.552 1.506-9.238.91-.835-1.37-.27.026.92 9.356zm-.816 14.667 4.115.52.034-.27-3.015-1.769.47-3.71 9.242 1.17.489 1.689.27.034.706-5.583-.27-.034-.873 1.346-9.208-1.165-.51-1.52-.27-.035-1.18 9.327zm-6.084 17.984c-.447.814-.724 1.638-.832 2.47a6.28 6.28 0 0 0 .137 2.403 5.771 5.771 0 0 0 1.049 2.117 6.11 6.11 0 0 0 1.913 1.602c.854.469 1.738.672 2.65.61.914-.06 1.79-.397 2.63-1.01.84-.612 1.584-1.509 2.233-2.691l2.788-5.083-.238-.13-1.306.931-8.138-4.465.084-1.602-.239-.13-2.73 4.978zm.984.151.637-1.162 8.198 4.497-.524.954c-.692 1.262-1.586 2.009-2.683 2.24-1.097.233-2.272.005-3.523-.681-1.242-.682-2.062-1.539-2.459-2.57-.397-1.033-.279-2.125.354-3.278zm-11.272 14.613a6.196 6.196 0 0 0-1.316 1.99 5.674 5.674 0 0 0-.423 2.177c.005.738.158 1.456.46 2.156.301.7.754 1.34 1.357 1.923a5.92 5.92 0 0 0 1.972 1.286c.71.276 1.434.403 2.17.382a5.674 5.674 0 0 0 2.162-.503 6.196 6.196 0 0 0 1.94-1.388 6.15 6.15 0 0 0 1.304-1.977c.288-.715.429-1.44.424-2.178a5.505 5.505 0 0 0-.46-2.156 5.92 5.92 0 0 0-1.358-1.923 5.92 5.92 0 0 0-1.971-1.286 5.505 5.505 0 0 0-2.171-.381 5.674 5.674 0 0 0-2.161.502 6.15 6.15 0 0 0-1.929 1.376zm.448.81c.44-.458 1.004-.717 1.693-.777.688-.06 1.432.082 2.232.428.8.346 1.591.897 2.374 1.652.637.613 1.103 1.24 1.4 1.88.295.64.419 1.243.369 1.809a2.342 2.342 0 0 1-.665 1.46c-.44.457-.999.714-1.675.77-.676.057-1.412-.09-2.208-.44-.796-.35-1.586-.903-2.369-1.658-.636-.614-1.106-1.236-1.41-1.868-.305-.632-.436-1.23-.394-1.796.042-.566.26-1.053.653-1.46zm-12.444 9.367.965 8.113-.104.058-6.346-5.093-.86.482 2.192 10.719-.694 1.09.134.238 3.35-1.88-.133-.237-1.6.137-1.473-6.658.074-.042 6.258 5.144.874-.49-1.113-8.03.074-.042 4.908 4.751-.93 1.262.133.238 4.67-2.62-.132-.238-1.475.048-7.912-7.432-.86.482zm-25.14 10.106 2.151 10.11-1.251.978.056.267 4.457-.949-.057-.266-2.037-.262-1.352-6.351 8.001 5.91 3.16-.673-.057-.266-1.562-.397-1.928-9.062 1.268-.983-.057-.266-4.472.952.056.266 2.04.278 1.487 6.984-8.872-6.49-1.031.22zm-19.414 5.354a1.987 1.987 0 0 0-1.53.384c-.45.337-.715.797-.798 1.38-.083.584.045 1.097.383 1.54.337.443.792.705 1.365.786.594.085 1.113-.04 1.555-.371.442-.332.704-.79.787-1.374.083-.583-.041-1.099-.373-1.546-.33-.448-.794-.714-1.389-.799zm-18.4-10.248a5.328 5.328 0 0 0-2.02-.56 3.986 3.986 0 0 0-1.978.34c-.609.277-1.076.74-1.402 1.388-.366.729-.443 1.426-.232 2.09.212.664.672 1.44 1.38 2.33.57.705.938 1.267 1.102 1.685.164.419.142.835-.067 1.25-.218.436-.53.717-.936.843s-.817.084-1.232-.124a2.374 2.374 0 0 1-.763-.583 4.026 4.026 0 0 1-.534-.849l-.201-2.25-.258-.13-1.07 2.506c.294.427.648.82 1.063 1.18.415.361.88.671 1.397.93.455.23.94.371 1.451.426a4.566 4.566 0 0 0 1.51-.089 3.92 3.92 0 0 0 1.33-.567c.394-.266.693-.6.896-1.006.326-.648.406-1.287.24-1.915-.167-.63-.53-1.281-1.092-1.956a25.112 25.112 0 0 1-1.14-1.477c-.266-.381-.421-.722-.467-1.024-.045-.302.02-.625.192-.969.255-.506.619-.802 1.093-.887.474-.085.985.01 1.531.284.335.168.63.393.889.675.258.281.467.602.629.962l.14 2.41.273.138 1.138-2.643a8.413 8.413 0 0 0-1.195-1.314c-.443-.394-.998-.759-1.667-1.094zm-13.359-8.409c-.628-.52-1.244-.928-1.847-1.221-.603-.294-1.17-.484-1.702-.571l-2.016 2.06.223.185 2.631-.778c.344.064.68.161 1.006.292.326.13.65.33.973.597.506.419.838.947.994 1.585.157.637.123 1.33-.1 2.08-.224.75-.65 1.503-1.28 2.263-.635.768-1.316 1.34-2.041 1.719-.725.378-1.432.55-2.119.518a3.017 3.017 0 0 1-1.83-.71 2.993 2.993 0 0 1-.617-.666 3.44 3.44 0 0 1-.366-.81l.437-3.06-.235-.195-1.884 2.567c.143.325.297.636.462.935.165.298.378.6.64.906.262.305.624.65 1.087 1.033.628.52 1.326.9 2.093 1.137.767.238 1.55.332 2.35.28.8-.05 1.563-.246 2.287-.588a5.497 5.497 0 0 0 1.9-1.494c.673-.812 1.085-1.696 1.237-2.652.152-.956.038-1.907-.34-2.854-.379-.946-1.026-1.799-1.943-2.558zm-10.697-10.53-.219.161.183 1.45-3.393 2.504-.535-.725 2.319-5.62-2.191-2.968-.219.161.18 1.39-2.017 5.396c-.614-.392-1.225-.624-1.834-.695a2.268 2.268 0 0 0-1.667.447c-.693.512-1.034 1.19-1.023 2.034.01.845.369 1.746 1.075 2.703l3.452 4.678.22-.161-.298-1.577 7.469-5.512 1.418.75.22-.162-3.14-4.254zm-4.563 3.98.464.63-3.42 2.523-.403-.547c-.465-.63-.668-1.215-.61-1.758.057-.542.355-1.012.893-1.409.51-.377 1.046-.519 1.608-.426.561.093 1.05.422 1.468.987zm-3.716-18.318a6.196 6.196 0 0 0-1.274-2.017 5.674 5.674 0 0 0-1.813-1.28 5.505 5.505 0 0 0-2.155-.464 5.92 5.92 0 0 0-2.31.45 5.92 5.92 0 0 0-1.982 1.27 5.505 5.505 0 0 0-1.238 1.823 5.675 5.675 0 0 0-.429 2.177c-.002.77.154 1.55.47 2.339a6.15 6.15 0 0 0 1.269 2 5.674 5.674 0 0 0 1.812 1.28 5.505 5.505 0 0 0 2.155.465 5.92 5.92 0 0 0 2.31-.45 5.92 5.92 0 0 0 1.983-1.27 5.505 5.505 0 0 0 1.238-1.823 5.675 5.675 0 0 0 .428-2.177 6.15 6.15 0 0 0-.464-2.323zm-.921.076c.236.589.24 1.21.013 1.862-.227.653-.662 1.273-1.306 1.86-.644.588-1.47 1.084-2.48 1.488-.821.329-1.584.497-2.289.505-.705.008-1.305-.127-1.801-.405a2.342 2.342 0 0 1-1.06-1.205c-.236-.59-.24-1.204-.015-1.844.226-.64.662-1.25 1.308-1.833.646-.582 1.474-1.076 2.484-1.48.82-.329 1.581-.502 2.282-.52.7-.019 1.3.107 1.8.377.498.27.853.669 1.064 1.195zm-4.5-19.813-4.11.557.036.27 3.37.933.501 3.706-9.231 1.251-.908-1.507-.27.037.756 5.576.27-.037.497-1.525 9.197-1.247.885 1.339.27-.037-1.263-9.316zm.28-14.694-4.131-.37-.024.271 3.077 1.658-.334 3.725-9.279-.831-.55-1.67-.27-.025-.503 5.604.271.025.823-1.377 9.245.828.565 1.502.271.024.84-9.364zm5.426-18.22c.417-.83.664-1.664.741-2.5a6.28 6.28 0 0 0-.224-2.395 5.771 5.771 0 0 0-1.126-2.077 6.11 6.11 0 0 0-1.97-1.531c-.872-.438-1.762-.609-2.672-.514-.91.095-1.773.464-2.59 1.106-.817.643-1.528 1.567-2.133 2.772l-2.601 5.18.243.123 1.271-.979 8.296 4.164-.025 1.604.243.122 2.547-5.075zm-.988-.115-.595 1.185-8.357-4.194.489-.973c.645-1.286 1.512-2.065 2.6-2.337 1.087-.272 2.269-.088 3.545.553 1.266.635 2.117 1.461 2.55 2.478.435 1.017.357 2.113-.232 3.288zm10.728-15.006a6.196 6.196 0 0 0 1.244-2.036 5.674 5.674 0 0 0 .343-2.192 5.505 5.505 0 0 0-.538-2.138 5.92 5.92 0 0 0-1.426-1.872 5.92 5.92 0 0 0-2.017-1.214 5.505 5.505 0 0 0-2.184-.302 5.674 5.674 0 0 0-2.14.58 6.196 6.196 0 0 0-1.89 1.458 6.15 6.15 0 0 0-1.231 2.024 5.674 5.674 0 0 0-.344 2.191c.032.737.212 1.45.538 2.138a5.92 5.92 0 0 0 1.427 1.872 5.92 5.92 0 0 0 2.016 1.214c.72.25 1.448.35 2.184.302a5.674 5.674 0 0 0 2.141-.58 6.15 6.15 0 0 0 1.877-1.445zm-.476-.793c-.424.473-.978.752-1.664.838-.686.085-1.434-.03-2.246-.347-.812-.317-1.623-.838-2.433-1.565-.658-.59-1.147-1.199-1.466-1.828-.32-.628-.465-1.226-.436-1.794.03-.567.233-1.062.612-1.484.423-.472.972-.749 1.646-.83.673-.081 1.414.04 2.222.36.809.321 1.618.845 2.428 1.57.658.591 1.15 1.196 1.477 1.816.327.62.48 1.214.459 1.781a2.286 2.286 0 0 1-.6 1.483zm12.098-9.817-1.262-8.072.102-.062 6.53 4.858.84-.514-2.583-10.63.654-1.117-.142-.232-3.28 2.001.142.233 1.593-.196 1.717 6.6-.072.044-6.442-4.911-.857.522 1.407 7.984-.073.044-5.078-4.568.883-1.295-.142-.233-4.571 2.79.142.232 1.471-.102 8.18 7.138.84-.514zm24.751-11.015L61.51 2.264l1.214-1.024-.066-.264-4.418 1.111.066.264 2.045.187 1.584 6.298-8.213-5.613-3.132.788.066.264 1.576.34 2.26 8.985-1.232 1.028.066.264 4.435-1.115-.066-.264-2.05-.203-1.741-6.925 9.104 6.16 1.022-.257zm21.326-8.942a1.987 1.987 0 0 0-1.39.746c-.353.437-.498.948-.436 1.534.063.586.312 1.052.747 1.4.436.346.941.49 1.516.428.598-.064 1.07-.31 1.417-.74.348-.43.49-.939.428-1.525s-.309-1.055-.74-1.409c-.43-.353-.944-.497-1.542-.434z" fill="#C9A882" fill-rule="nonzero" opacity=".497"/>
</svg>
