<svg width="24" height="24" xmlns="http://www.w3.org/2000/svg">
    <g fill="none" fill-rule="evenodd">
        <path d="M0 0h24v24H0z"/>
        <path d="M.101 11.893C.106 1.407 12.831-3.984 20.52 3.45l-.015.04A11.794 11.794 0 0 1 24 11.898c-.004 9.05-9.76 14.72-17.665 10.45L0 24l1.696-6.162a11.836 11.836 0 0 1-1.595-5.945zm11.971-9.927c-7.812 0-12.55 8.58-8.426 15.145l.239.375-1.005 3.645 3.75-.975.36.214c6.627 3.896 15.006-.87 15.012-8.504a9.788 9.788 0 0 0-2.909-6.99 9.865 9.865 0 0 0-7.021-2.91zM7.023 6.718c.371-.386.792-.394 1.368-.344.185 0 .432-.074.672.51.25.586.847 2.056.922 2.206.074.15.125.314.025.524-.558 1.056-1.171 1.128-.878 1.634.176.3.772 1.275 1.66 2.07 1.14 1.02 2.103 1.335 2.403 1.485.297.135.471.12.646-.075.173-.198.747-.867.944-1.162.284-.426.514-.28 2.713.816l.009-.075c.3.135.496.21.57.345.075.135.075.72-.18 1.425-.249.705-1.442 1.335-2.016 1.426-.515.074-1.166.106-1.88-.12-2.644-.909-4.09-1.563-6.804-5.115-1.381-1.946-1.788-3.776-.174-5.55z" fill="#C9A882"/>
    </g>
</svg>
